# Rhino

mtllib sky-03.mtl
usemtl Material_2
v 485.85366709885773 48.926296234130859 -52.911819458007813
v 485.85366709885773 48.926296234130859 -52.911819458007813
v 505.17098887620148 30.385274887084961 -29.958808898925781
v 509.41183360276398 30.385274887084961 -47.074817657470703
v 513.65264781174835 30.385274887084961 -64.190826416015625
v 485.85366709885773 48.926296234130859 -52.911819458007813
v 485.85366709885773 48.926296234130859 -52.911819458007813
v 469.99343760667023 30.385274887084961 -27.447074890136719
v 487.58221324143585 30.385274887084961 -28.70294189453125
v 505.17098887620148 30.385274887084961 -29.958808898925781
v 485.85366709885773 48.926296234130859 -52.911819458007813
v 485.85366709885773 48.926296234130859 -52.911819458007813
v 483.71707041917023 30.385274887084961 -82.835639953613281
v 470.22561534104523 30.385274887084961 -71.481193542480469
v 456.73419078049835 30.385274887084961 -60.126754760742188
v 485.85366709885773 48.926296234130859 -52.911819458007813
v 456.73419078049835 30.385274887084961 -60.126754760742188
v 469.99343760667023 30.385274887084961 -27.447074890136719
v 485.85366709885773 48.926296234130859 -52.911819458007813
v 499.7531727140921 39.655784606933594 -58.551322937011719
v 513.65264781174835 30.385274887084961 -64.190826416015625
v 483.71707041917023 30.385274887084961 -82.835639953613281
v 483.71707041917023 30.385272979736328 -82.835639953613281
v 501.71389659104523 0.38527289032936096 -78.376564025878906
v 466.53634532151398 0.38527289032936096 -75.864822387695313
v 483.71707041917023 30.385274887084961 -82.835639953613281
v 466.53634532151398 0.38527289032936096 -75.864822387695313
v 456.73419078049835 30.385274887084961 -60.126750946044922
v 483.71707041917023 30.385272979736328 -82.835639953613281
v 513.65264781174835 30.385274887084961 -64.190826416015625
v 501.71389659104523 0.38527289032936096 -78.376564025878906
v 466.53634532151398 0.38527289032936096 -75.864822387695313
v 466.53634532151398 0.38527289032936096 -75.864822387695313
v 485.85366709885773 -18.155742645263672 -52.911811828613281
v 471.95416148362335 -8.8852319717407227 -47.272308349609375
v 458.0546863859671 0.38527917861938477 -41.632808685302734
v 466.53634532151398 0.38527289032936096 -75.864822387695313
v 458.0546863859671 0.38527917861938477 -41.632808685302734
v 457.39443858323273 15.38527774810791 -50.879776000976563
v 456.73419078049835 30.385276794433594 -60.126747131347656
v 466.53634532151398 0.38527336716651917 -75.864822387695313
v 466.53634532151398 0.38527336716651917 -75.864822387695313
v 501.71389659104523 0.38527289032936096 -78.376564025878906
v 493.78378184495148 -8.8852348327636719 -65.644187927246094
v 485.85366709885773 -18.155742645263672 -52.911811828613281
v 458.0546863859671 0.38527995347976685 -41.632808685302734
v 487.99029429612335 0.38528531789779663 -22.987998962402344
v 469.99343760667023 30.385284423828125 -27.447078704833984
v 458.0546863859671 0.38528010249137878 -41.632804870605469
v 469.99343760667023 30.385284423828125 -27.447078704833984
v 463.36382945237335 30.385280609130859 -43.786914825439453
v 456.73419078049835 30.385276794433594 -60.126754760742188
v 458.0546863859671 0.38527965545654297 -41.632808685302734
v 458.0546863859671 0.38527965545654297 -41.632808685302734
v 471.95416148362335 -8.8852319717407227 -47.272308349609375
v 472.48834117112335 -4.2499747276306152 -39.791355133056641
v 485.85366709885773 -18.155742645263672 -52.911811828613281
v 486.92196543870148 -8.8852291107177734 -37.949905395507813
v 487.99029429612335 0.38528531789779663 -22.987998962402344
v 487.99029429612335 0.38528609275817871 -22.987998962402344
v 514.97317393479523 0.38527941703796387 -45.696891784667969
v 505.1710193937796 30.385284423828125 -29.958824157714844
v 487.99029429612335 0.38528624176979065 -22.987998962402344
v 478.99188121018585 15.385286331176758 -25.217540740966797
v 505.1710193937796 30.385284423828125 -29.958824157714844
v 469.99343760667023 30.385286331176758 -27.44708251953125
v 487.99029429612335 0.38528609275817871 -22.987998962402344
v 485.85366709885773 -18.155742645263672 -52.911811828613281
v 514.97317393479523 0.38527941703796387 -45.696891784667969
v 514.97317393479523 0.38528016209602356 -45.696891784667969
v 501.71389659104523 0.38526961207389832 -78.376564025878906
v 513.65264781174835 30.385274887084961 -64.190841674804688
v 514.97317393479523 0.3852803111076355 -45.696891784667969
v 514.97317393479523 0.3852803111076355 -45.696891784667969
v 512.1925037687796 15.385280609130859 -46.3858642578125
v 510.07208140549835 15.385283470153809 -37.827857971191406
v 513.65264781174835 30.385274887084961 -64.190841674804688
v 509.41183360276398 30.385280609130859 -47.074832916259766
v 505.17098887620148 30.385286331176758 -29.958824157714844
v 514.97317393479523 0.38528016209602356 -45.696891784667969
v 500.41342051682648 -8.8852319717407227 -49.304351806640625
v 485.85366709885773 -18.155742645263672 -52.911811828613281
v 501.71389659104523 0.38526961207389832 -78.376564025878906
vt 0 0
vt 0 0.5
vt 1 0
vt 1 0.5
vt 1 1
vt 0 0
vt 0 0.5
vt 1 0
vt 1 0.5
vt 1 1
vt 0.249267578125 0
vt 0 0
vt 0.49853515625 0.5
vt 0.249267578125 0.5
vt 0 0.5
vt 0.5 0.99853515625
vt 0.99853515625 0.5
vt 0.99853515625 0.99853515625
vt 0.5 0.49853515625
vt 0.749267578125 0
vt 0.99853515625 0
vt 0.99853515625 0.49853515625
vt 0 0
vt 0.49853515625 0.5
vt 0 0.5
vt 0.5 0.99853515625
vt 0.99853515625 0.5
vt 0.99853515625 0.99853515625
vt 0.5 0.49853515625
vt 0.99853515625 0
vt 0.99853515625 0.49853515625
vt 0.249267578125 0
vt 0 0
vt 0.49853515625 0.5
vt 0.249267578125 0.5
vt 0 0.5
vt 0.5 0.749267578125
vt 0.99853515625 0.5
vt 0.99853515625 0.749267578125
vt 0.99853515625 0.99853515625
vt 0.5 0
vt 0.5 0.49853515625
vt 0.99853515625 0
vt 0.99853515625 0.249267578125
vt 0.99853515625 0.49853515625
vt 0 0
vt 0.49853515625 0.5
vt 0 0.5
vt 0.5 0.749267578125
vt 0.99853515625 0.5
vt 0.99853515625 0.749267578125
vt 0.99853515625 0.99853515625
vt 0.5 0
vt 0.5 0.49853515625
vt 0.749267578125 0
vt 0.749267578125 0.249267578125
vt 0.99853515625 0
vt 0.99853515625 0.249267578125
vt 0.99853515625 0.49853515625
vt 0 0
vt 0.49853515625 0.5
vt 0 0.5
vt 0.5 0.5
vt 0.749267578125 0.99853515625
vt 0.99853515625 0.5
vt 0.99853515625 0.99853515625
vt 0.5 0.49853515625
vt 0.99853515625 0
vt 0.99853515625 0.49853515625
vt 0 0
vt 0.49853515625 0.5
vt 0 0.5
vt 0.5 0.5
vt 0.5 0.749267578125
vt 0.749267578125 0.749267578125
vt 0.749267578125 0.99853515625
vt 0.99853515625 0.5
vt 0.99853515625 0.749267578125
vt 0.99853515625 0.99853515625
vt 0.5 0.49853515625
vt 0.749267578125 0
vt 0.99853515625 0
vt 0.99853515625 0.49853515625
vn -0.78037935495376587 -0.60150295495986938 0.1708867996931076
vn -0.59476619958877563 -0.58069616556167603 0.55591827630996704
vn 0.58924460411071777 0.79465442895889282 0.1459970623254776
vn 0.58924460411071777 0.79465442895889282 0.14599707722663879
vn 0.58924460411071777 0.79465442895889282 0.14599707722663879
vn 0.043235130608081818 0.79465442895889282 0.60552048683166504
vn 0.043235130608081818 0.79465442895889282 0.60552048683166504
vn 0.043235130608081818 0.79465442895889282 0.60552048683166504
vn 0.043235130608081818 0.79465442895889282 0.60552048683166504
vn 0.043235130608081818 0.79465442895889282 0.60552048683166504
vn -0.39089396595954895 0.79465442895889282 -0.46446341276168823
vn -0.39089396595954895 0.79465442895889282 -0.46446341276168823
vn -0.39089396595954895 0.79465442895889282 -0.46446341276168823
vn -0.39089396595954895 0.79465442895889282 -0.46446341276168823
vn -0.39089396595954895 0.79465442895889282 -0.46446341276168823
vn -0.56252384185791016 0.79465442895889282 0.22823517024517059
vn -0.56252384185791016 0.79465442895889282 0.22823517024517059
vn -0.56252384185791016 0.79465442895889282 0.22823517024517059
vn 0.32093805074691772 0.79465442895889282 -0.515289306640625
vn 0.32093805074691772 0.79465442895889282 -0.515289306640625
vn 0.32093805074691772 0.79465442895889282 -0.515289306640625
vn 0.32093805074691772 0.79465442895889282 -0.515289306640625
vn -0.069955967366695404 -0.18759262561798096 -0.97975260019302368
vn -0.069955967366695404 -0.18759262561798096 -0.97975260019302368
vn -0.069955967366695404 -0.18759262561798096 -0.97975260019302368
vn -0.63247978687286377 0.18759237229824066 -0.75151741504669189
vn -0.63247978687286377 0.18759237229824066 -0.75151741504669189
vn -0.63247978687286377 0.18759237229824066 -0.75151741504669189
vn 0.51928865909576416 0.18759238719940186 -0.83375561237335205
vn 0.51928865909576416 0.18759238719940186 -0.83375561237335205
vn 0.51928865909576416 0.18759238719940186 -0.83375561237335205
vn -0.589244544506073 -0.7946544885635376 -0.14599679410457611
vn -0.589244544506073 -0.7946544885635376 -0.14599679410457611
vn -0.589244544506073 -0.7946544885635376 -0.14599679410457611
vn -0.589244544506073 -0.7946544885635376 -0.14599679410457611
vn -0.589244544506073 -0.7946544885635376 -0.14599679410457611
vn -0.95341777801513672 -0.18759243190288544 -0.23622797429561615
vn -0.95341777801513672 -0.18759243190288544 -0.23622797429561615
vn -0.95341777801513672 -0.18759243190288544 -0.23622797429561615
vn -0.95341777801513672 -0.18759243190288544 -0.23622797429561615
vn -0.043235179036855698 -0.79465454816818237 -0.60552030801773071
vn -0.043235179036855698 -0.79465454816818237 -0.60552030801773071
vn -0.043235179036855698 -0.79465454816818237 -0.60552030801773071
vn -0.043235179036855698 -0.79465454816818237 -0.60552030801773071
vn -0.043235179036855698 -0.79465454816818237 -0.60552030801773071
vn -0.51928842067718506 -0.18759216368198395 0.83375579118728638
vn -0.51928842067718506 -0.18759216368198395 0.83375579118728638
vn -0.51928842067718506 -0.18759216368198395 0.83375579118728638
vn -0.91018247604370117 0.18759271502494812 0.36929237842559814
vn -0.91018247604370117 0.18759271502494812 0.36929237842559814
vn -0.91018247604370117 0.18759271502494812 0.36929237842559814
vn -0.91018247604370117 0.18759271502494812 0.36929237842559814
vn -0.32093790173530579 -0.79465430974960327 0.51528960466384888
vn -0.32093790173530579 -0.79465430974960327 0.51528960466384888
vn -0.32093790173530579 -0.79465430974960327 0.51528960466384888
vn -0.32093790173530579 -0.79465430974960327 0.51528960466384888
vn -0.32093790173530579 -0.79465430974960327 0.51528960466384888
vn -0.32093790173530579 -0.79465430974960327 0.51528960466384888
vn -0.32093790173530579 -0.79465430974960327 0.51528960466384888
vn 0.63247990608215332 -0.18759216368198395 0.75151735544204712
vn 0.63247990608215332 -0.18759216368198395 0.75151735544204712
vn 0.63247990608215332 -0.18759216368198395 0.75151735544204712
vn 0.06995614618062973 0.18759292364120483 0.97975254058837891
vn 0.06995614618062973 0.18759292364120483 0.97975254058837891
vn 0.06995614618062973 0.18759292364120483 0.97975254058837891
vn 0.06995614618062973 0.18759292364120483 0.97975254058837891
vn 0.3908940851688385 -0.79465430974960327 0.4644635021686554
vn 0.3908940851688385 -0.79465430974960327 0.4644635021686554
vn 0.3908940851688385 -0.79465430974960327 0.4644635021686554
vn 0.91018247604370117 -0.18759247660636902 -0.3692924976348877
vn 0.91018247604370117 -0.18759247660636902 -0.3692924976348877
vn 0.91018247604370117 -0.18759247660636902 -0.3692924976348877
vn 0.95341771841049194 0.18759272992610931 0.23622786998748779
vn 0.95341771841049194 0.18759272992610931 0.23622786998748779
vn 0.95341771841049194 0.18759272992610931 0.23622786998748779
vn 0.95341771841049194 0.18759272992610931 0.23622786998748779
vn 0.95341771841049194 0.18759272992610931 0.23622786998748779
vn 0.95341771841049194 0.18759272992610931 0.23622786998748779
vn 0.95341771841049194 0.18759272992610931 0.23622786998748779
vn 0.56252372264862061 -0.7946544885635376 -0.22823508083820343
vn 0.56252372264862061 -0.7946544885635376 -0.22823508083820343
vn 0.56252372264862061 -0.7946544885635376 -0.22823508083820343
vn 0.56252372264862061 -0.7946544885635376 -0.22823508083820343
f 4/4/4 1/1/1 3/3/3
f 5/5/5 2/2/2 4/4/4
f 9/9/9 6/6/6 8/8/8
f 10/10/10 7/7/7 9/9/9
f 11/11/11 13/13/13 14/14/14
f 12/12/12 14/14/14 15/15/15
f 16/16/16 17/17/17 18/18/18
f 22/22/22 20/20/20 21/21/21
f 19/19/19 20/20/20 22/22/22
f 23/23/23 24/24/24 25/25/25
f 26/26/26 27/27/27 28/28/28
f 29/29/29 30/30/30 31/31/31
f 32/32/32 34/34/34 35/35/35
f 33/33/33 35/35/35 36/36/36
f 40/40/40 37/37/37 39/39/39
f 37/37/37 38/38/38 39/39/39
f 44/44/44 41/41/41 43/43/43
f 42/42/42 44/44/44 45/45/45
f 46/46/46 47/47/47 48/48/48
f 52/52/52 49/49/49 51/51/51
f 49/49/49 50/50/50 51/51/51
f 56/56/56 53/53/53 55/55/55
f 58/58/58 56/56/56 55/55/55 57/57/57
f 59/59/59 56/56/56 58/58/58
f 54/54/54 56/56/56 59/59/59
f 60/60/60 61/61/61 62/62/62
f 66/66/66 64/64/64 65/65/65
f 63/63/63 65/65/65 64/64/64
f 67/67/67 68/68/68 69/69/69
f 70/70/70 71/71/71 72/72/72
f 76/76/76 74/74/74 75/75/75
f 79/79/79 76/76/76 75/75/75 78/78/78
f 78/78/78 75/75/75 77/77/77
f 73/73/73 77/77/77 75/75/75
f 83/83/83 81/81/81 82/82/82
f 80/80/80 81/81/81 83/83/83
